<svg data-v-0dd9719b="" version="1.0" xmlns="http://www.w3.org/2000/svg" xmlns:xlink="http://www.w3.org/1999/xlink" width="100%" height="100%" viewBox="0 0 140 140" preserveAspectRatio="xMidYMid meet" color-interpolation-filters="sRGB" style="margin: auto;"> <rect data-v-0dd9719b="" x="0" y="0" width="100%" height="100%" fill="#ffffff" fill-opacity="1" class="background"></rect> <!----> <g data-v-0dd9719b="" fill="#333" class="icon-text-wrapper icon-svg-group iconsvg" transform="translate(20, 20)"><g fill="#333" class="iconsvg-imagesvg icon_container"><rect fill="#333" fill-opacity="0" stroke-width="2" x="0" y="0" width="100" height="100" class="image-rect"></rect> <svg viewBox="0 0 60 60" x="0" y="0" width="100" height="100" class="image-svg-svg bn" style="overflow: visible;"><g hollow-target="iconBnFill" mask="url(#2372d3a0-eb87-4e22-95e6-c6d02a702fee)"><g><svg viewBox="0 0 100 100" xmlns="http://www.w3.org/2000/svg" style="overflow: visible;" width="60" height="60" x="0" y="0" filtersec="colorsf401289581" filter="url(#rbAugF5iLs4trPOJVnJOp)"><g transform="scale(1, 1) skewX(0)"><rect x="537" y="3121" width="100" height="100" rx="30" transform="translate(-537 -3121)" fill="#333" fill-rule="evenodd"></rect></g><defs><filter id="rbAugF5iLs4trPOJVnJOp"><feColorMatrix type="matrix" values="0 0 0 0 0.19921875  0 0 0 0 0.19921875  0 0 0 0 0.19921875  0 0 0 1 0"></feColorMatrix></filter></defs></svg></g> <g filter="url(#colors1168838666)"><svg xmlns="http://www.w3.org/2000/svg" xmlns:xlink="http://www.w3.org/1999/xlink" viewBox="0 0 117.95178082191784 56.016000000000005" width="45" height="45" x="7.5" y="7.5" class="image-svg-letter"><path transform="translate(-0.504 55.15200000000001)" d="M12.67-54.58L18.22-54.58Q21.31-54.58 22.61-50.98L22.61-50.98L33.70-14.47L33.84-14.47L44.14-54.58L49.97-54.58Q52.56-54.58 53.93-52.99L53.93-52.99Q55.30-51.48 56.16-47.66L56.16-47.66L66.53-0.07L55.15-0.07L46.66-38.81L46.51-38.81L36.00-2.59L30.17-2.59Q27.58-2.59 26.64-5.11L26.64-5.11L16.20-38.52L16.06-38.52L6.84-0.07L0.50-0.07L12.67-54.58ZM94.75-27.94L113.76-27.94Q118.73-27.94 118.44-22.32L118.44-22.32Q117.14 0.86 95.62 0.86L95.62 0.86Q83.66 0.86 76.82-6.34L76.82-6.34Q69.84-13.68 69.84-26.93L69.84-26.93Q69.84-40.68 76.90-48.10L76.90-48.10Q83.66-55.15 95.62-55.15L95.62-55.15Q103.32-55.15 109.01-51.05L109.01-51.05Q114.84-46.80 116.93-39.31L116.93-39.31L106.20-36.29Q105.26-42.05 102.17-45.50L102.17-45.50Q99.07-48.89 94.82-48.89L94.82-48.89Q88.42-48.89 84.74-42.26L84.74-42.26Q81.36-36.14 81.36-26.93L81.36-26.93Q81.36-17.64 85.18-11.59L85.18-11.59Q89.21-5.26 95.62-5.26L95.62-5.26Q101.23-5.26 104.40-11.16L104.40-11.16Q106.92-15.98 107.21-22.68L107.21-22.68L95.40-22.68L94.75-27.94Z"></path></svg></g></g><mask id="2372d3a0-eb87-4e22-95e6-c6d02a702fee"><g fill="white"><svg viewBox="0 0 100 100" xmlns="http://www.w3.org/2000/svg" style="overflow: visible;" width="60" height="60" x="0" y="0" filtersec="colorsf401289581"><g transform="scale(1, 1) skewX(0)"><rect x="537" y="3121" width="100" height="100" rx="30" transform="translate(-537 -3121)" fill-rule="evenodd"></rect></g><defs></defs></svg></g> <g fill="black"><svg xmlns="http://www.w3.org/2000/svg" xmlns:xlink="http://www.w3.org/1999/xlink" viewBox="0 0 117.95178082191784 56.016000000000005" width="45" height="45" x="7.5" y="7.5" class="image-svg-letter"><path transform="translate(-0.504 55.15200000000001)" d="M12.67-54.58L18.22-54.58Q21.31-54.58 22.61-50.98L22.61-50.98L33.70-14.47L33.84-14.47L44.14-54.58L49.97-54.58Q52.56-54.58 53.93-52.99L53.93-52.99Q55.30-51.48 56.16-47.66L56.16-47.66L66.53-0.07L55.15-0.07L46.66-38.81L46.51-38.81L36.00-2.59L30.17-2.59Q27.58-2.59 26.64-5.11L26.64-5.11L16.20-38.52L16.06-38.52L6.84-0.07L0.50-0.07L12.67-54.58ZM94.75-27.94L113.76-27.94Q118.73-27.94 118.44-22.32L118.44-22.32Q117.14 0.86 95.62 0.86L95.62 0.86Q83.66 0.86 76.82-6.34L76.82-6.34Q69.84-13.68 69.84-26.93L69.84-26.93Q69.84-40.68 76.90-48.10L76.90-48.10Q83.66-55.15 95.62-55.15L95.62-55.15Q103.32-55.15 109.01-51.05L109.01-51.05Q114.84-46.80 116.93-39.31L116.93-39.31L106.20-36.29Q105.26-42.05 102.17-45.50L102.17-45.50Q99.07-48.89 94.82-48.89L94.82-48.89Q88.42-48.89 84.74-42.26L84.74-42.26Q81.36-36.14 81.36-26.93L81.36-26.93Q81.36-17.64 85.18-11.59L85.18-11.59Q89.21-5.26 95.62-5.26L95.62-5.26Q101.23-5.26 104.40-11.16L104.40-11.16Q106.92-15.98 107.21-22.68L107.21-22.68L95.40-22.68L94.75-27.94Z"></path></svg></g></mask></svg> <defs><filter id="colors1168838666"><feColorMatrix type="matrix" values="0 0 0 0 0.19921875  0 0 0 0 0.19921875  0 0 0 0 0.19921875  0 0 0 1 0" class="icon-fecolormatrix"></feColorMatrix></filter> <filter id="colorsf401289581"><feColorMatrix type="matrix" values="0 0 0 0 0.99609375  0 0 0 0 0.99609375  0 0 0 0 0.99609375  0 0 0 1 0" class="icon-fecolormatrix"></feColorMatrix></filter> <filter id="colorsb7266321990"><feColorMatrix type="matrix" values="0 0 0 0 0  0 0 0 0 0  0 0 0 0 0  0 0 0 1 0" class="icon-fecolormatrix"></feColorMatrix></filter></defs></g> <g transform="translate(50,107)"><g data-gra="path-name" fill-rule="" class="tp-name iconsvg-namesvg"><g transform="scale(1)"><g><path d="" transform="translate(0, 0)"></path></g> <!----> <!----> <!----> <!----> <!----> <!----> <!----></g></g> <!----></g></g><defs v-gra="od"></defs></svg>